<?xml version="1.0" encoding="UTF-8"?>
<!DOCTYPE svg PUBLIC "-//W3C//DTD SVG 1.1//EN" "http://www.w3.org/Graphics/SVG/1.1/DTD/svg11.dtd">
<!-- Creator: CorelDRAW -->
<svg xmlns="http://www.w3.org/2000/svg" xml:space="preserve" width="22mm" height="22mm" version="1.1" style="shape-rendering:geometricPrecision; text-rendering:geometricPrecision; image-rendering:optimizeQuality; fill-rule:evenodd; clip-rule:evenodd"
viewBox="0 0 1011.34 1011.34"
 xmlns:xlink="http://www.w3.org/1999/xlink"
 xmlns:xodm="http://www.corel.com/coreldraw/odm/2003">
 <defs>
  <style type="text/css">
   <![CDATA[
    .str0 {stroke:#2B2A29;stroke-width:32.44;stroke-miterlimit:22.9256}
    .fil0 {fill:none}
    .fil1 {fill:#00A0E3}
   ]]>
  </style>
 </defs>
 <g id="Layer_x0020_1">
  <metadata id="CorelCorpID_0Corel-Layer"/>
  <g id="_2071498415168">
   <rect class="fil0" x="-0" y="-0" width="1011.34" height="1011.34"/>
   <path class="fil1 str0" d="M485.2 803.93c46.29,0 83.82,34.22 83.82,76.44 0,42.22 -37.53,76.44 -83.82,76.44 -46.29,0 -83.81,-34.22 -83.81,-76.44 0,-42.22 37.53,-76.44 83.81,-76.44zm-38.04 -44.17l97.41 -0.33c7.59,-0.02 14.01,-4.71 16.35,-11.92 18.06,-55.6 6.91,-88.92 61.54,-163.39 48.57,-66.2 146.86,-206.17 155.85,-282.2 25.72,-147.05 -34.6,-194.82 -152.93,-245.95 -2.23,-0.96 -4.3,-1.4 -6.73,-1.42 -204.73,-1.45 -345.87,74.65 -391.17,311.41 -0.97,5.09 0.19,9.86 3.4,13.93 3.21,4.08 7.59,6.32 12.77,6.55 36.8,1.67 68.99,3.44 106.24,5.1 8.33,0.38 15.58,-5.08 17.54,-13.19 73.68,-304.66 448.48,-304.72 143.66,161.59 -3.58,5.47 -18.63,37.8 -28.72,56.77 -25.75,48.39 -46.07,110.71 -52.23,142.5 -1.02,5.25 0.24,10.16 3.65,14.28 3.41,4.11 8.01,6.27 13.35,6.25z"/>
  </g>
 </g>
</svg>
