<?xml version="1.0" encoding="UTF-8"?>
<!DOCTYPE svg PUBLIC "-//W3C//DTD SVG 1.1//EN" "http://www.w3.org/Graphics/SVG/1.1/DTD/svg11.dtd">
<!-- Creator: CorelDRAW -->
<svg xmlns="http://www.w3.org/2000/svg" xml:space="preserve" width="22mm" height="22mm" version="1.1" style="shape-rendering:geometricPrecision; text-rendering:geometricPrecision; image-rendering:optimizeQuality; fill-rule:evenodd; clip-rule:evenodd"
viewBox="0 0 1011.57 1011.57"
 xmlns:xlink="http://www.w3.org/1999/xlink"
 xmlns:xodm="http://www.corel.com/coreldraw/odm/2003">
 <defs>
  <style type="text/css">
   <![CDATA[
    .str0 {stroke:#2B2A29;stroke-width:32.44;stroke-miterlimit:22.9256}
    .fil0 {fill:none}
    .fil2 {fill:#FEFEFE}
    .fil1 {fill:#E31E24}
   ]]>
  </style>
 </defs>
 <g id="Layer_x0020_1">
  <metadata id="CorelCorpID_0Corel-Layer"/>
  <g id="_2070839211312">
   <rect class="fil0" x="-0" y="-0" width="1011.57" height="1011.57"/>
   <g>
    <path class="fil1 str0" d="M503.37 151.69c203.71,0 368.84,160.08 368.84,357.55 0,197.47 -165.14,357.55 -368.84,357.55 -203.71,0 -368.84,-160.08 -368.84,-357.55 0,-197.47 165.13,-357.55 368.84,-357.55z"/>
    <path class="fil2 str0" d="M763.36 255.64l39.85 -39.85c11.78,-11.78 31.05,-11.78 42.82,0l11.8 11.8c11.78,11.78 11.78,31.04 0,42.82l-44.69 44.69c-14.38,-21.52 -31.09,-41.46 -49.77,-59.46z"/>
    <path class="fil2 str0" d="M759.12 900.69c18.25,0 33.06,12.99 33.06,29.01 0,16.03 -14.8,29.02 -33.06,29.02 -18.25,0 -33.05,-12.99 -33.05,-29.02 0,-16.02 14.8,-29.01 33.05,-29.01z"/>
    <path class="fil2 str0" d="M751.63 883.9l26.68 -0.09c5.73,-0.02 10.56,-3.7 12.11,-9.21 5.16,-18.43 2.92,-31.22 22.83,-57.34 19.15,-25.13 57.92,-78.25 61.47,-107.12 10.23,-56.32 -14.08,-74.27 -61.58,-93.88 -79.24,-0.86 -134.56,26.24 -154.07,110.83 -0.87,3.77 -0.1,7.38 2.24,10.47 2.34,3.09 5.61,4.8 9.48,4.98 10.27,0.47 19.9,0.95 30.37,1.42 5.91,0.26 11.08,-3.46 12.69,-9.16 31.6,-111.26 174.17,-109.05 55.49,65.7 -1.41,2.07 -7.35,14.35 -11.33,21.55 -8.18,14.78 -14.97,33 -18.57,45.83 -1.1,3.94 -0.37,7.79 2.11,11.05 2.47,3.26 6,4.99 10.08,4.98z"/>
    <path class="fil2 str0" d="M300.29 52.85l407.02 0c13.88,0 25.22,11.35 25.22,25.23l0 28.65c0,13.89 -11.35,25.23 -25.22,25.23l-407.02 0c-13.88,0 -25.23,-11.35 -25.23,-25.23l0 -28.65c0,-13.89 11.35,-25.23 25.23,-25.23z"/>
    <path class="fil2 str0" d="M459.37 544.45l0 -215.66c0,-13.88 11.35,-25.23 25.23,-25.23l28.64 0c13.89,0 25.24,11.35 25.24,25.23l0 215.66c0,13.88 -11.35,25.23 -25.24,25.23l-28.64 0c-13.89,0 -25.23,-11.35 -25.23,-25.23z"/>
    <path class="fil2 str0" d="M702.15 569.46l-215.66 0c-13.88,0 -25.23,-11.35 -25.23,-25.24l0 -28.65c0,-13.88 11.35,-25.23 25.23,-25.23l215.66 0c13.88,0 25.23,11.35 25.23,25.23l0 28.65c0,13.89 -11.35,25.24 -25.23,25.24z"/>
   </g>
  </g>
 </g>
</svg>
