<?xml version="1.0" encoding="UTF-8"?>
<!DOCTYPE svg PUBLIC "-//W3C//DTD SVG 1.1//EN" "http://www.w3.org/Graphics/SVG/1.1/DTD/svg11.dtd">
<!-- Creator: CorelDRAW -->
<svg xmlns="http://www.w3.org/2000/svg" xml:space="preserve" width="22mm" height="22mm" version="1.1" style="shape-rendering:geometricPrecision; text-rendering:geometricPrecision; image-rendering:optimizeQuality; fill-rule:evenodd; clip-rule:evenodd"
viewBox="0 0 22589.38 22589.38"
 xmlns:xlink="http://www.w3.org/1999/xlink"
 xmlns:xodm="http://www.corel.com/coreldraw/odm/2003">
 <defs>
  <style type="text/css">
   <![CDATA[
    .str0 {stroke:#2B2A29;stroke-width:724.5;stroke-miterlimit:22.9256}
    .fil0 {fill:none}
    .fil1 {fill:#009846}
   ]]>
  </style>
 </defs>
 <g id="Layer_x0020_1">
  <metadata id="CorelCorpID_0Corel-Layer"/>
  <g id="_2070741665488">
   <rect class="fil0" x="-0.04" y="-0.05" width="22589.38" height="22589.38"/>
   <g>
    <path class="fil1" d="M14757.64 4661.32c263.27,-26.7 298.28,-533.11 -684.87,-1093.94 -616.18,-351.37 -2254.01,-412.67 -2888.15,-419.96 -569.66,-6.57 -1969.49,296.54 -2584.12,503.23 -336.68,113.15 -557.55,265.12 -701.19,431.35 -224.87,260.29 142.31,716.19 -97.85,677.37l6956.19 -98.06zm-3414.69 273.23c-661.25,-20.74 -4373.3,-742.06 -5509.14,604.47 -1034.39,1226.09 -735.9,4422.9 -735.9,6230.46 0,2021.34 425.6,4838.95 1684.96,6095.54 1103.7,1101.13 2833.12,1461.64 4438.3,1461.64 1936.94,0 4098.23,-850.7 5267.12,-2573.03 905.32,-1333.8 1055.95,-3328.75 1055.95,-4984.14 0,-1860.34 261.22,-5168.86 -827.28,-6405.42 -168.29,-191.29 -467.39,-335.97 -689.69,-443.37 -1276.09,-616.18 -4074.1,33.06 -4684.32,13.86zm-9146.13 -2768.23c457.33,833.24 611.04,2060.05 1068.37,2893.29 508.47,926.58 1320.66,1459.48 1829.23,2385.95l-2897.6 -5279.24zm-1601.07 9262.26c1449.01,169.01 3077.49,306.09 4410.88,112.95l-4410.88 -112.95zm1412.86 9308.57l2409.88 -1411.84 1949.16 -1776.35 -4359.03 3188.18zm18383.95 -18884.92c-457.33,833.24 -611.04,2060.15 -1068.37,2893.39 -508.47,926.47 -1320.66,1459.38 -1829.23,2385.85l2897.6 -5279.24zm1601.07 9262.36c-1449.01,168.91 -3077.49,305.98 -4410.88,112.84l4410.88 -112.84zm-1412.86 9308.47l-2409.88 -1411.84 -1949.16 -1776.35 4359.03 3188.18z"/>
    <path id="_1" class="fil0 str0" d="M14757.64 4661.32c263.27,-26.7 298.28,-533.11 -684.87,-1093.94 -616.18,-351.37 -2254.01,-412.67 -2888.15,-419.96 -569.66,-6.57 -1969.49,296.54 -2584.12,503.23 -336.68,113.15 -557.55,265.12 -701.19,431.35 -224.87,260.29 142.31,716.19 -97.85,677.37m3541.5 175.17c-661.25,-20.74 -4373.3,-742.06 -5509.14,604.47 -1034.39,1226.09 -735.9,4422.9 -735.9,6230.46 0,2021.34 425.6,4838.95 1684.96,6095.54 1103.7,1101.13 2833.12,1461.64 4438.3,1461.64 1936.94,0 4098.23,-850.7 5267.12,-2573.03 905.32,-1333.8 1055.95,-3328.75 1055.95,-4984.14 0,-1860.34 261.22,-5168.86 -827.28,-6405.42 -168.29,-191.29 -467.39,-335.97 -689.69,-443.37 -1276.09,-616.18 -4074.1,33.06 -4684.32,13.86zm-9146.13 -2768.23c457.33,833.24 611.04,2060.05 1068.37,2893.29 508.47,926.58 1320.66,1459.48 1829.23,2385.95m-4498.67 3983.02c1449.01,169.01 3077.49,306.09 4410.88,112.95m-2998.02 9195.62l2409.88 -1411.84 1949.16 -1776.35m14024.92 -15696.74c-457.33,833.24 -611.04,2060.15 -1068.37,2893.39 -508.47,926.47 -1320.66,1459.38 -1829.23,2385.85m4498.67 3983.12c-1449.01,168.91 -3077.49,305.98 -4410.88,112.84m2998.02 9195.62l-2409.88 -1411.84 -1949.16 -1776.35"/>
   </g>
  </g>
 </g>
</svg>
