<?xml version="1.0" encoding="UTF-8"?>
<!DOCTYPE svg PUBLIC "-//W3C//DTD SVG 1.1//EN" "http://www.w3.org/Graphics/SVG/1.1/DTD/svg11.dtd">
<!-- Creator: CorelDRAW -->
<svg xmlns="http://www.w3.org/2000/svg" xml:space="preserve" width="22mm" height="22mm" version="1.1" style="shape-rendering:geometricPrecision; text-rendering:geometricPrecision; image-rendering:optimizeQuality; fill-rule:evenodd; clip-rule:evenodd"
viewBox="0 0 1011.11 1011.11"
 xmlns:xlink="http://www.w3.org/1999/xlink"
 xmlns:xodm="http://www.corel.com/coreldraw/odm/2003">
 <defs>
  <style type="text/css">
   <![CDATA[
    .str0 {stroke:#2B2A29;stroke-width:32.43;stroke-miterlimit:22.9256}
    .fil0 {fill:none}
    .fil2 {fill:#A79ECD}
    .fil1 {fill:#A79ECD}
   ]]>
  </style>
 </defs>
 <g id="Layer_x0020_1">
  <metadata id="CorelCorpID_0Corel-Layer"/>
  <g id="_2071500921232">
   <rect class="fil0" x="-0" y="-0" width="1011.11" height="1011.11"/>
   <g>
    <path class="fil1 str0" d="M414.36 581.48l2.1 84.27c0.17,7.07 6.01,12.72 13.09,12.65l82.05 -0.72c3.62,-0.03 6.76,1.26 9.31,3.82 2.56,2.57 3.83,5.7 3.78,9.33l-1.81 139.17c-0.09,6.86 -5.48,12.46 -12.34,12.8l-80.76 3.98c-3.58,0.18 -6.59,1.61 -8.99,4.27 -2.39,2.66 -3.51,5.8 -3.33,9.38l4.19 79.41c0.2,3.77 -1.06,7.1 -3.71,9.79 -2.65,2.69 -5.95,4 -9.73,3.87l-146.94 -5.45c-6.81,-0.25 -12.25,-5.7 -12.49,-12.51l-2.63 -73.82c-0.24,-6.85 -5.74,-12.3 -12.58,-12.51l-65.68 -1.95c-7.06,-0.21 -12.68,-6.06 -12.59,-13.14l1.83 -147.93c0.08,-6.98 5.68,-12.64 12.66,-12.81l76.72 -1.92c6.81,-0.17 12.31,-5.53 12.64,-12.34l4.16 -84.8c0.18,-3.58 1.61,-6.6 4.27,-9 2.67,-2.4 5.82,-3.51 9.4,-3.31l125.12 6.86c6.77,0.37 12.09,5.85 12.27,12.63z"/>
    <path class="fil2 str0" d="M556.89 335.83l384.22 0c7.15,0 12.98,5.83 12.98,12.98l0 85.28c0,7.15 -5.83,12.98 -12.98,12.98l-384.22 0c-7.15,0 -12.98,-5.83 -12.98,-12.98l0 -85.28c0,-7.15 5.83,-12.98 12.98,-12.98z"/>
    <path class="fil2 str0" d="M558.39 478.25l384.22 0c7.15,0 12.98,5.83 12.98,12.98l0 85.28c0,7.15 -5.83,12.98 -12.98,12.98l-384.22 0c-7.15,0 -12.98,-5.83 -12.98,-12.98l0 -85.28c0,-7.15 5.83,-12.98 12.98,-12.98z"/>
    <g>
     <path class="fil2 str0" d="M68.49 214.06l352.61 -0.75c7.15,-0.02 12.99,5.8 13.01,12.95l0.17 76.71c0.01,7.15 -5.8,12.99 -12.95,13.01l-352.61 0.75c-7.15,0.01 -12.99,-5.8 -13.01,-12.96l-0.17 -76.71c-0.01,-7.15 5.8,-12.99 12.95,-13.01z"/>
    </g>
    <path class="fil1 str0" d="M233.28 57.6c38.39,0 69.52,29.88 69.52,66.75 0,36.87 -31.13,66.76 -69.52,66.76 -38.39,0 -69.52,-29.89 -69.52,-66.76 0,-36.86 31.12,-66.75 69.52,-66.75z"/>
    <path class="fil1 str0" d="M237.28 328.43c38.39,0 69.51,29.89 69.51,66.76 0,36.86 -31.12,66.75 -69.51,66.75 -38.39,0 -69.52,-29.88 -69.52,-66.75 0,-36.87 31.12,-66.76 69.52,-66.76z"/>
   </g>
  </g>
 </g>
</svg>
