<?xml version="1.0" encoding="UTF-8"?>
<!DOCTYPE svg PUBLIC "-//W3C//DTD SVG 1.1//EN" "http://www.w3.org/Graphics/SVG/1.1/DTD/svg11.dtd">
<!-- Creator: CorelDRAW -->
<svg xmlns="http://www.w3.org/2000/svg" xml:space="preserve" width="22mm" height="22mm" version="1.1" style="shape-rendering:geometricPrecision; text-rendering:geometricPrecision; image-rendering:optimizeQuality; fill-rule:evenodd; clip-rule:evenodd"
viewBox="0 0 934.34 934.34"
 xmlns:xlink="http://www.w3.org/1999/xlink"
 xmlns:xodm="http://www.corel.com/coreldraw/odm/2003">
 <defs>
  <style type="text/css">
   <![CDATA[
    .str0 {stroke:#2B2A29;stroke-width:29.97;stroke-miterlimit:22.9256}
    .fil0 {fill:none}
    .fil1 {fill:#FEFEFE}
    .fil2 {fill:#FEFEFE}
   ]]>
  </style>
 </defs>
 <g id="Layer_x0020_1">
  <metadata id="CorelCorpID_0Corel-Layer"/>
  <g id="_2071506103120">
   <polygon class="fil0" points="-0,0 934.34,0 934.34,934.34 -0,934.34 "/>
   <polygon class="fil1" points="202.6,188.22 736.07,188.22 736.07,736.35 202.6,736.35 "/>
   <g>
    <path class="fil2" d="M205.45 127.49l523.23 0c37.08,0 67.42,30.34 67.42,67.42l0 541.31c0,37.08 -30.34,67.43 -67.42,67.43l-523.23 0c-37.08,0 -67.42,-30.34 -67.42,-67.43l0 -541.31c0,-37.08 30.34,-67.42 67.42,-67.42zm-2.85 60.73l533.47 0 0 548.13 -533.47 0 0 -548.13zm533.73 94.8l-244.56 0.81 244.56 -0.81zm-283.01 -40.23c22.08,0 39.99,17.63 39.99,39.37 0,21.75 -17.91,39.38 -39.99,39.38 -22.08,0 -39.99,-17.63 -39.99,-39.38 0,-21.74 17.91,-39.37 39.99,-39.37zm-157.04 492.96l0.6 -109.22c0.01,-1.76 0.33,-3.26 1.04,-4.88l27.14 -61.31 -28.79 175.41zm9.22 -205.64c0,19.99 15.96,36.21 35.65,36.21 19.69,0 35.65,-16.22 35.65,-36.21 0,-19.99 -15.96,-36.21 -35.65,-36.21 -19.69,0 -35.65,16.22 -35.65,36.21zm-104.94 -95.35l220.5 -1.02c1.96,-0.01 3.64,0.71 5.03,2.09l117.13 117.12c1.38,1.38 3.07,3.1 5.03,3.1l185.55 0 -533.25 -121.29zm365.9 299.38l-0.72 -65.8 0.72 65.8zm34.18 -99.85c0,19.63 -15.67,35.55 -35,35.55 -19.33,0 -35,-15.92 -35,-35.55 0,-19.63 15.67,-35.55 35,-35.55 19.33,0 35,15.92 35,35.55zm-400.08 -265.87l220.5 -0.55c1.96,-0 3.64,0.7 5.03,2.09l117.13 117.13c1.38,1.38 3.07,2.09 5.03,2.09l185.55 0.54 -533.25 -121.29zm50.87 -317.74l48.29 0c2.61,0 4.74,2.13 4.74,4.74l0 64.35c0,2.62 -2.13,4.74 -4.74,4.74l-48.29 0c-2.6,0 -4.74,-2.13 -4.74,-4.74l0 -64.35c0,-2.61 2.14,-4.74 4.74,-4.74zm94.9 0l48.28 0c2.61,0 4.74,2.13 4.74,4.74l0 64.35c0,2.62 -2.13,4.74 -4.74,4.74l-48.28 0c-2.61,0 -4.74,-2.13 -4.74,-4.74l0 -64.35c0,-2.61 2.13,-4.74 4.74,-4.74zm94.89 0l48.28 0c2.61,0 4.74,2.13 4.74,4.74l0 64.35c0,2.62 -2.13,4.74 -4.74,4.74l-48.28 0c-2.61,0 -4.74,-2.13 -4.74,-4.74l0 -64.35c0,-2.61 2.13,-4.74 4.74,-4.74zm94.89 0l48.28 0c2.61,0 4.74,2.13 4.74,4.74l0 64.35c0,2.62 -2.13,4.74 -4.74,4.74l-48.28 0c-2.61,0 -4.74,-2.13 -4.74,-4.74l0 -64.35c0,-2.61 2.13,-4.74 4.74,-4.74zm94.9 0l48.28 0c2.61,0 4.74,2.13 4.74,4.74l0 64.35c0,2.62 -2.13,4.74 -4.74,4.74l-48.28 0c-2.61,0 -4.74,-2.13 -4.74,-4.74l0 -64.35c0,-2.61 2.13,-4.74 4.74,-4.74zm-379.57 759.14l48.29 0c2.61,0 4.74,2.14 4.74,4.75l0 64.34c0,2.62 -2.13,4.74 -4.74,4.74l-48.29 0c-2.6,0 -4.74,-2.13 -4.74,-4.74l0 -64.34c0,-2.61 2.14,-4.75 4.74,-4.75zm94.9 0l48.28 0c2.61,0 4.74,2.14 4.74,4.75l0 64.34c0,2.62 -2.13,4.74 -4.74,4.74l-48.28 0c-2.61,0 -4.74,-2.13 -4.74,-4.74l0 -64.34c0,-2.61 2.13,-4.75 4.74,-4.75zm94.89 0l48.28 0c2.61,0 4.74,2.14 4.74,4.75l0 64.34c0,2.62 -2.13,4.74 -4.74,4.74l-48.28 0c-2.61,0 -4.74,-2.13 -4.74,-4.74l0 -64.34c0,-2.61 2.13,-4.75 4.74,-4.75zm94.89 0l48.28 0c2.61,0 4.74,2.14 4.74,4.75l0 64.34c0,2.62 -2.13,4.74 -4.74,4.74l-48.28 0c-2.61,0 -4.74,-2.13 -4.74,-4.74l0 -64.34c0,-2.61 2.13,-4.75 4.74,-4.75zm94.9 0l48.28 0c2.61,0 4.74,2.14 4.74,4.75l0 64.34c0,2.62 -2.13,4.74 -4.74,4.74l-48.28 0c-2.61,0 -4.74,-2.13 -4.74,-4.74l0 -64.34c0,-2.61 2.13,-4.75 4.74,-4.75zm-567.98 -74.6l0 -48.28c0,-2.61 2.13,-4.74 4.74,-4.74l64.35 0c2.61,0 4.74,2.13 4.74,4.74l0 48.28c0,2.61 -2.13,4.74 -4.74,4.74l-64.35 0c-2.61,0 -4.74,-2.13 -4.74,-4.74zm0 -94.9l0 -48.28c0,-2.61 2.13,-4.74 4.74,-4.74l64.35 0c2.61,0 4.74,2.13 4.74,4.74l0 48.28c0,2.61 -2.13,4.74 -4.74,4.74l-64.35 0c-2.61,0 -4.74,-2.13 -4.74,-4.74zm0 -94.89l0 -48.29c0,-2.61 2.13,-4.74 4.74,-4.74l64.35 0c2.61,0 4.74,2.13 4.74,4.74l0 48.29c0,2.61 -2.13,4.74 -4.74,4.74l-64.35 0c-2.61,0 -4.74,-2.13 -4.74,-4.74zm0 -94.9l0 -48.28c0,-2.61 2.13,-4.74 4.74,-4.74l64.35 0c2.61,0 4.74,2.13 4.74,4.74l0 48.28c0,2.61 -2.13,4.74 -4.74,4.74l-64.35 0c-2.61,0 -4.74,-2.13 -4.74,-4.74zm0 -94.9l0 -48.28c0,-2.61 2.13,-4.74 4.74,-4.74l64.35 0c2.61,0 4.74,2.13 4.74,4.74l0 48.28c0,2.61 -2.13,4.74 -4.74,4.74l-64.35 0c-2.61,0 -4.74,-2.13 -4.74,-4.74zm0 -94.89l0 -48.29c0,-2.61 2.13,-4.74 4.74,-4.74l64.35 0c2.61,0 4.74,2.13 4.74,4.74l0 48.29c0,2.61 -2.13,4.74 -4.74,4.74l-64.35 0c-2.61,0 -4.74,-2.13 -4.74,-4.74zm734.44 474.46l0 -48.28c0,-2.61 2.14,-4.74 4.75,-4.74l64.34 0c2.62,0 4.74,2.13 4.74,4.74l0 48.28c0,2.61 -2.13,4.74 -4.74,4.74l-64.34 0c-2.61,0 -4.75,-2.13 -4.75,-4.74zm0 -94.9l0 -48.28c0,-2.61 2.14,-4.74 4.75,-4.74l64.34 0c2.62,0 4.74,2.13 4.74,4.74l0 48.28c0,2.61 -2.13,4.74 -4.74,4.74l-64.34 0c-2.61,0 -4.75,-2.13 -4.75,-4.74zm0 -94.89l0 -48.29c0,-2.61 2.14,-4.74 4.75,-4.74l64.34 0c2.62,0 4.74,2.13 4.74,4.74l0 48.29c0,2.61 -2.13,4.74 -4.74,4.74l-64.34 0c-2.61,0 -4.75,-2.13 -4.75,-4.74zm0 -94.9l0 -48.28c0,-2.61 2.14,-4.74 4.75,-4.74l64.34 0c2.62,0 4.74,2.13 4.74,4.74l0 48.28c0,2.61 -2.13,4.74 -4.74,4.74l-64.34 0c-2.61,0 -4.75,-2.13 -4.75,-4.74zm0 -94.9l0 -48.28c0,-2.61 2.14,-4.74 4.75,-4.74l64.34 0c2.62,0 4.74,2.13 4.74,4.74l0 48.28c0,2.61 -2.13,4.74 -4.74,4.74l-64.34 0c-2.61,0 -4.75,-2.13 -4.75,-4.74zm0 -94.89l0 -48.29c0,-2.61 2.14,-4.74 4.75,-4.74l64.34 0c2.62,0 4.74,2.13 4.74,4.74l0 48.29c0,2.61 -2.13,4.74 -4.74,4.74l-64.34 0c-2.61,0 -4.75,-2.13 -4.75,-4.74z"/>
    <path id="_1" class="fil0 str0" d="M205.45 127.49l523.23 0c37.08,0 67.42,30.34 67.42,67.42l0 541.31c0,37.08 -30.34,67.43 -67.42,67.43l-523.23 0c-37.08,0 -67.42,-30.34 -67.42,-67.43l0 -541.31c0,-37.08 30.34,-67.42 67.42,-67.42zm-2.85 60.73l533.47 0 0 548.13 -533.47 0 0 -548.13zm533.73 94.8l-244.56 0.81m-38.45 -41.04c22.08,0 39.99,17.63 39.99,39.37 0,21.75 -17.91,39.38 -39.99,39.38 -22.08,0 -39.99,-17.63 -39.99,-39.38 0,-21.74 17.91,-39.37 39.99,-39.37zm-157.04 492.96l0.6 -109.22c0.01,-1.76 0.33,-3.26 1.04,-4.88l27.14 -61.31m-19.57 -30.23c0,19.99 15.96,36.21 35.65,36.21 19.69,0 35.65,-16.22 35.65,-36.21 0,-19.99 -15.96,-36.21 -35.65,-36.21 -19.69,0 -35.65,16.22 -35.65,36.21zm-104.94 -95.35l220.5 -1.02c1.96,-0.01 3.64,0.71 5.03,2.09l117.13 117.12c1.38,1.38 3.07,3.1 5.03,3.1l185.55 0m-167.34 178.09l-0.72 -65.8m34.9 -34.05c0,19.63 -15.67,35.55 -35,35.55 -19.33,0 -35,-15.92 -35,-35.55 0,-19.63 15.67,-35.55 35,-35.55 19.33,0 35,15.92 35,35.55zm-400.08 -265.87l220.5 -0.55c1.96,-0 3.64,0.7 5.03,2.09l117.13 117.13c1.38,1.38 3.07,2.09 5.03,2.09l185.55 0.54m-482.37 -439.03l48.29 0c2.61,0 4.74,2.13 4.74,4.74l0 64.35c0,2.62 -2.13,4.74 -4.74,4.74l-48.29 0c-2.6,0 -4.74,-2.13 -4.74,-4.74l0 -64.35c0,-2.61 2.14,-4.74 4.74,-4.74zm94.9 0l48.28 0c2.61,0 4.74,2.13 4.74,4.74l0 64.35c0,2.62 -2.13,4.74 -4.74,4.74l-48.28 0c-2.61,0 -4.74,-2.13 -4.74,-4.74l0 -64.35c0,-2.61 2.13,-4.74 4.74,-4.74zm94.89 0l48.28 0c2.61,0 4.74,2.13 4.74,4.74l0 64.35c0,2.62 -2.13,4.74 -4.74,4.74l-48.28 0c-2.61,0 -4.74,-2.13 -4.74,-4.74l0 -64.35c0,-2.61 2.13,-4.74 4.74,-4.74zm94.89 0l48.28 0c2.61,0 4.74,2.13 4.74,4.74l0 64.35c0,2.62 -2.13,4.74 -4.74,4.74l-48.28 0c-2.61,0 -4.74,-2.13 -4.74,-4.74l0 -64.35c0,-2.61 2.13,-4.74 4.74,-4.74zm94.9 0l48.28 0c2.61,0 4.74,2.13 4.74,4.74l0 64.35c0,2.62 -2.13,4.74 -4.74,4.74l-48.28 0c-2.61,0 -4.74,-2.13 -4.74,-4.74l0 -64.35c0,-2.61 2.13,-4.74 4.74,-4.74zm-379.57 759.14l48.29 0c2.61,0 4.74,2.14 4.74,4.75l0 64.34c0,2.62 -2.13,4.74 -4.74,4.74l-48.29 0c-2.6,0 -4.74,-2.13 -4.74,-4.74l0 -64.34c0,-2.61 2.14,-4.75 4.74,-4.75zm94.9 0l48.28 0c2.61,0 4.74,2.14 4.74,4.75l0 64.34c0,2.62 -2.13,4.74 -4.74,4.74l-48.28 0c-2.61,0 -4.74,-2.13 -4.74,-4.74l0 -64.34c0,-2.61 2.13,-4.75 4.74,-4.75zm94.89 0l48.28 0c2.61,0 4.74,2.14 4.74,4.75l0 64.34c0,2.62 -2.13,4.74 -4.74,4.74l-48.28 0c-2.61,0 -4.74,-2.13 -4.74,-4.74l0 -64.34c0,-2.61 2.13,-4.75 4.74,-4.75zm94.89 0l48.28 0c2.61,0 4.74,2.14 4.74,4.75l0 64.34c0,2.62 -2.13,4.74 -4.74,4.74l-48.28 0c-2.61,0 -4.74,-2.13 -4.74,-4.74l0 -64.34c0,-2.61 2.13,-4.75 4.74,-4.75zm94.9 0l48.28 0c2.61,0 4.74,2.14 4.74,4.75l0 64.34c0,2.62 -2.13,4.74 -4.74,4.74l-48.28 0c-2.61,0 -4.74,-2.13 -4.74,-4.74l0 -64.34c0,-2.61 2.13,-4.75 4.74,-4.75zm-567.98 -74.6l0 -48.28c0,-2.61 2.13,-4.74 4.74,-4.74l64.35 0c2.61,0 4.74,2.13 4.74,4.74l0 48.28c0,2.61 -2.13,4.74 -4.74,4.74l-64.35 0c-2.61,0 -4.74,-2.13 -4.74,-4.74zm0 -94.9l0 -48.28c0,-2.61 2.13,-4.74 4.74,-4.74l64.35 0c2.61,0 4.74,2.13 4.74,4.74l0 48.28c0,2.61 -2.13,4.74 -4.74,4.74l-64.35 0c-2.61,0 -4.74,-2.13 -4.74,-4.74zm0 -94.89l0 -48.29c0,-2.61 2.13,-4.74 4.74,-4.74l64.35 0c2.61,0 4.74,2.13 4.74,4.74l0 48.29c0,2.61 -2.13,4.74 -4.74,4.74l-64.35 0c-2.61,0 -4.74,-2.13 -4.74,-4.74zm0 -94.9l0 -48.28c0,-2.61 2.13,-4.74 4.74,-4.74l64.35 0c2.61,0 4.74,2.13 4.74,4.74l0 48.28c0,2.61 -2.13,4.74 -4.74,4.74l-64.35 0c-2.61,0 -4.74,-2.13 -4.74,-4.74zm0 -94.9l0 -48.28c0,-2.61 2.13,-4.74 4.74,-4.74l64.35 0c2.61,0 4.74,2.13 4.74,4.74l0 48.28c0,2.61 -2.13,4.74 -4.74,4.74l-64.35 0c-2.61,0 -4.74,-2.13 -4.74,-4.74zm0 -94.89l0 -48.29c0,-2.61 2.13,-4.74 4.74,-4.74l64.35 0c2.61,0 4.74,2.13 4.74,4.74l0 48.29c0,2.61 -2.13,4.74 -4.74,4.74l-64.35 0c-2.61,0 -4.74,-2.13 -4.74,-4.74zm734.44 474.46l0 -48.28c0,-2.61 2.14,-4.74 4.75,-4.74l64.34 0c2.62,0 4.74,2.13 4.74,4.74l0 48.28c0,2.61 -2.13,4.74 -4.74,4.74l-64.34 0c-2.61,0 -4.75,-2.13 -4.75,-4.74zm0 -94.9l0 -48.28c0,-2.61 2.14,-4.74 4.75,-4.74l64.34 0c2.62,0 4.74,2.13 4.74,4.74l0 48.28c0,2.61 -2.13,4.74 -4.74,4.74l-64.34 0c-2.61,0 -4.75,-2.13 -4.75,-4.74zm0 -94.89l0 -48.29c0,-2.61 2.14,-4.74 4.75,-4.74l64.34 0c2.62,0 4.74,2.13 4.74,4.74l0 48.29c0,2.61 -2.13,4.74 -4.74,4.74l-64.34 0c-2.61,0 -4.75,-2.13 -4.75,-4.74zm0 -94.9l0 -48.28c0,-2.61 2.14,-4.74 4.75,-4.74l64.34 0c2.62,0 4.74,2.13 4.74,4.74l0 48.28c0,2.61 -2.13,4.74 -4.74,4.74l-64.34 0c-2.61,0 -4.75,-2.13 -4.75,-4.74zm0 -94.9l0 -48.28c0,-2.61 2.14,-4.74 4.75,-4.74l64.34 0c2.62,0 4.74,2.13 4.74,4.74l0 48.28c0,2.61 -2.13,4.74 -4.74,4.74l-64.34 0c-2.61,0 -4.75,-2.13 -4.75,-4.74zm0 -94.89l0 -48.29c0,-2.61 2.14,-4.74 4.75,-4.74l64.34 0c2.62,0 4.74,2.13 4.74,4.74l0 48.29c0,2.61 -2.13,4.74 -4.74,4.74l-64.34 0c-2.61,0 -4.75,-2.13 -4.75,-4.74z"/>
   </g>
  </g>
 </g>
</svg>
