<?xml version="1.0" encoding="UTF-8"?>
<!DOCTYPE svg PUBLIC "-//W3C//DTD SVG 1.1//EN" "http://www.w3.org/Graphics/SVG/1.1/DTD/svg11.dtd">
<!-- Creator: CorelDRAW -->
<svg xmlns="http://www.w3.org/2000/svg" xml:space="preserve" width="22mm" height="22mm" version="1.1" style="shape-rendering:geometricPrecision; text-rendering:geometricPrecision; image-rendering:optimizeQuality; fill-rule:evenodd; clip-rule:evenodd"
viewBox="0 0 22589.38 22589.38"
 xmlns:xlink="http://www.w3.org/1999/xlink"
 xmlns:xodm="http://www.corel.com/coreldraw/odm/2003">
 <defs>
  <style type="text/css">
   <![CDATA[
    .str0 {stroke:#2B2A29;stroke-width:724.5;stroke-miterlimit:22.9256}
    .fil0 {fill:none}
    .fil1 {fill:#FFED00}
   ]]>
  </style>
 </defs>
 <g id="Layer_x0020_1">
  <metadata id="CorelCorpID_0Corel-Layer"/>
  <g id="_2070741682720">
   <rect class="fil0" x="-0.04" y="-0.05" width="22589.38" height="22589.38"/>
   <path class="fil1 str0" d="M12346.74 2566.05l2037.25 4659.57c175.79,401.99 535.27,655.5 972.99,685.69l5222.66 360.71c482.69,33.27 874.82,343.87 1017.86,806.03 143.03,462.36 -5.24,940.03 -384.84,1240.16l-3879.31 3067.23c-365.85,289.25 -516.89,740.83 -398.6,1192l1230.09 4690.58c120.13,458.05 -37.99,917.54 -414.62,1204.53 -376.63,286.99 -861.48,317.69 -1271.37,80.4l-4608.95 -2668.11c-365.64,-211.72 -784.78,-211.72 -1150.52,0l-4608.85 2668.11c-409.79,237.29 -894.64,206.59 -1271.27,-80.29 -376.63,-287.09 -534.75,-746.58 -414.62,-1204.63l1230.09 -4690.58c118.18,-451.07 -32.75,-902.75 -398.6,-1192l-3879.42 -3067.12c-379.6,-300.03 -527.77,-777.79 -384.84,-1240.05 143.03,-462.36 535.16,-772.97 1017.86,-806.24l5222.77 -360.71c437.72,-30.19 797.2,-283.7 972.99,-685.69l2037.15 -4659.57c186.98,-427.35 585.58,-688.26 1052.15,-688.26 466.37,0.1 865.17,260.91 1051.95,688.26z"/>
  </g>
 </g>
</svg>
